<?xml version="1.0" encoding="UTF-8"?>
<!DOCTYPE svg PUBLIC "-//W3C//DTD SVG 1.1//EN" "http://www.w3.org/Graphics/SVG/1.1/DTD/svg11.dtd">
<!-- Creator: CorelDRAW 2020 (64 Bit) -->
<svg xmlns="http://www.w3.org/2000/svg" xml:space="preserve" width="10.3212mm" height="4.7678mm" version="1.1" style="shape-rendering:geometricPrecision; text-rendering:geometricPrecision; image-rendering:optimizeQuality; fill-rule:evenodd; clip-rule:evenodd"
viewBox="0 0 29.5 13.63"
 xmlns:xlink="http://www.w3.org/1999/xlink"
 xmlns:xodm="http://www.corel.com/coreldraw/odm/2003">
 <defs>
  <style type="text/css">
   <![CDATA[
    .fil0 {fill:#272262}
   ]]>
  </style>
 </defs>
 <g id="Camada_x0020_1">
  <metadata id="CorelCorpID_0Corel-Layer"/>
  <g id="_2759276083520">
   <path class="fil0" d="M1.47 7.49c0.14,-0.48 3.09,-2.76 3.88,-3.26 2.74,-1.74 5.42,-2.88 8.76,-3.18 3.76,-0.34 8.01,1.03 11.17,3.08 0.51,0.33 2.46,1.64 2.76,2.02 -1.71,1.73 -3.27,2.91 -5.39,4.14 -2.03,1.17 -4.91,2.13 -7.27,2.28 -2.97,0.19 -5.29,-0.34 -7.99,-1.43 -1.71,-0.69 -3.78,-1.95 -5.26,-3.11 -0.18,-0.14 -0.52,-0.39 -0.67,-0.55zm-1.47 -1.42c0.16,0.3 2.34,2.37 2.74,2.66 0.46,0.32 0.92,0.73 1.52,1.15 2.82,1.96 6.39,3.38 9.8,3.7 4,0.38 9.08,-1.38 12.41,-3.65 1.09,-0.74 2.01,-1.57 3.02,-2.39 -0.11,-0.17 -0.49,-0.51 -0.65,-0.68 -0.22,-0.23 -0.44,-0.44 -0.66,-0.67 -3.19,-3.24 -8.22,-5.72 -12.77,-6.13 -5.29,-0.48 -11.61,2.43 -15.42,6.02z"/>
   <path class="fil0" d="M11.25 3.91c1.97,-1.01 3.96,1.16 2.97,2.93 -0.9,1.6 -3,1.48 -3.81,0.11 -0.11,-0.19 -0.18,-0.48 -0.26,-0.6 -0.16,0.35 0.01,1.47 0.12,1.87 1.13,4.02 6.74,4.72 8.71,0.71 1.63,-3.32 -1.33,-7.24 -5.03,-6.56 -0.55,0.1 -1.08,0.28 -1.55,0.57 -0.35,0.21 -0.96,0.65 -1.15,0.96z"/>
  </g>
 </g>
</svg>
