<?xml version="1.0" encoding="UTF-8"?>
<!DOCTYPE svg PUBLIC "-//W3C//DTD SVG 1.1//EN" "http://www.w3.org/Graphics/SVG/1.1/DTD/svg11.dtd">
<!-- Creator: CorelDRAW 2018 (64 Bit) -->
<svg xmlns="http://www.w3.org/2000/svg" xml:space="preserve" width="65.5mm" height="11.5mm" version="1.1" style="shape-rendering:geometricPrecision; text-rendering:geometricPrecision; image-rendering:optimizeQuality; fill-rule:evenodd; clip-rule:evenodd"
viewBox="0 0 104.46 18.13"
 xmlns:xlink="http://www.w3.org/1999/xlink">
 <defs>
  <style type="text/css">
   <![CDATA[
    .fil1 {fill:#A4D182}
    .fil0 {fill:white}
    .fil2 {fill:#FEFEFE;fill-rule:nonzero}
   ]]>
  </style>
 </defs>
 <g id="Camada_x0020_1">
  <metadata id="CorelCorpID_0Corel-Layer"/>
  <g id="_1919448034880">
   <path class="fil0" d="M34.01 6.52l-1.74 0 0 8.02 -1.96 0 0 -8.02 -1.11 0 0 -1.63 1.11 0 0 -0.68c0,-1.11 0.28,-1.91 0.85,-2.42 0.58,-0.51 1.48,-0.77 2.71,-0.77l0 1.66c-0.59,0 -1,0.12 -1.24,0.35 -0.24,0.22 -0.36,0.61 -0.36,1.17l0 0.68 1.74 0 0 1.63z"/>
   <path class="fil0" d="M36.72 3.61c-0.35,0 -0.65,-0.12 -0.89,-0.37 -0.24,-0.24 -0.36,-0.55 -0.36,-0.91 0,-0.36 0.12,-0.67 0.36,-0.91 0.24,-0.24 0.53,-0.37 0.89,-0.37 0.34,0 0.63,0.12 0.87,0.37 0.24,0.24 0.36,0.55 0.36,0.91 0,0.36 -0.12,0.67 -0.36,0.91 -0.24,0.25 -0.53,0.37 -0.87,0.37zm0.95 1.28l0 9.64 -1.94 0 0 -9.64 1.94 0z"/>
   <path class="fil0" d="M44.95 4.73c0.74,0 1.4,0.16 1.97,0.47 0.59,0.32 1.05,0.78 1.38,1.4 0.33,0.62 0.49,1.37 0.49,2.24l0 5.69 -1.92 0 0 -5.39c0,-0.86 -0.21,-1.52 -0.63,-1.98 -0.42,-0.47 -0.99,-0.7 -1.72,-0.7 -0.73,0 -1.31,0.23 -1.74,0.7 -0.42,0.45 -0.63,1.11 -0.63,1.98l0 5.39 -1.94 0 0 -9.64 1.94 0 0 1.1c0.32,-0.4 0.72,-0.71 1.21,-0.93 0.5,-0.22 1.03,-0.33 1.58,-0.33z"/>
   <path class="fil0" d="M50.63 9.67c0,-0.97 0.19,-1.83 0.58,-2.57 0.4,-0.75 0.93,-1.32 1.6,-1.73 0.68,-0.42 1.43,-0.63 2.25,-0.63 0.74,0 1.38,0.15 1.92,0.46 0.56,0.29 1,0.66 1.33,1.1l0 -1.4 1.96 0 0 9.64 -1.96 0 0 -1.44c-0.33,0.46 -0.78,0.83 -1.34,1.14 -0.57,0.3 -1.21,0.46 -1.94,0.46 -0.81,0 -1.54,-0.21 -2.21,-0.63 -0.67,-0.43 -1.2,-1.03 -1.6,-1.79 -0.39,-0.77 -0.58,-1.64 -0.58,-2.61zm7.68 0.03c0,-0.67 -0.14,-1.24 -0.41,-1.73 -0.26,-0.49 -0.61,-0.86 -1.04,-1.12 -0.43,-0.26 -0.9,-0.38 -1.4,-0.38 -0.5,0 -0.96,0.13 -1.4,0.38 -0.43,0.25 -0.78,0.61 -1.06,1.1 -0.26,0.48 -0.39,1.05 -0.39,1.72 0,0.67 0.13,1.25 0.39,1.75 0.27,0.5 0.62,0.89 1.06,1.16 0.44,0.26 0.91,0.39 1.4,0.39 0.5,0 0.96,-0.13 1.4,-0.39 0.43,-0.26 0.78,-0.63 1.04,-1.12 0.27,-0.5 0.41,-1.09 0.41,-1.75z"/>
   <path class="fil0" d="M67.55 4.73c0.74,0 1.4,0.16 1.97,0.47 0.59,0.32 1.05,0.78 1.38,1.4 0.33,0.62 0.49,1.37 0.49,2.24l0 5.69 -1.92 0 0 -5.39c0,-0.86 -0.21,-1.52 -0.63,-1.98 -0.42,-0.47 -0.99,-0.7 -1.72,-0.7 -0.73,0 -1.31,0.23 -1.74,0.7 -0.42,0.45 -0.63,1.11 -0.63,1.98l0 5.39 -1.94 0 0 -9.64 1.94 0 0 1.1c0.32,-0.4 0.72,-0.71 1.21,-0.93 0.5,-0.22 1.03,-0.33 1.58,-0.33z"/>
   <path class="fil0" d="M73.22 9.7c0,-0.99 0.19,-1.86 0.58,-2.61 0.4,-0.76 0.94,-1.34 1.63,-1.75 0.69,-0.41 1.49,-0.61 2.38,-0.61 1.13,0 2.07,0.28 2.81,0.84 0.75,0.55 1.25,1.34 1.52,2.36l-2.09 0c-0.17,-0.48 -0.44,-0.85 -0.82,-1.12 -0.37,-0.27 -0.85,-0.4 -1.41,-0.4 -0.79,0 -1.43,0.29 -1.91,0.88 -0.47,0.57 -0.7,1.38 -0.7,2.42 0,1.04 0.23,1.85 0.7,2.43 0.48,0.58 1.11,0.88 1.91,0.88 1.12,0 1.87,-0.51 2.23,-1.52l2.09 0c-0.27,0.98 -0.78,1.76 -1.53,2.35 -0.75,0.57 -1.68,0.86 -2.79,0.86 -0.9,0 -1.69,-0.2 -2.38,-0.61 -0.69,-0.42 -1.24,-1 -1.63,-1.75 -0.39,-0.76 -0.58,-1.63 -0.58,-2.63z"/>
   <path class="fil0" d="M92.67 9.47c0,0.36 -0.02,0.69 -0.07,0.98l-7.17 0c0.06,0.77 0.33,1.39 0.83,1.86 0.5,0.47 1.11,0.7 1.84,0.7 1.04,0 1.78,-0.45 2.21,-1.35l2.09 0c-0.28,0.89 -0.8,1.62 -1.55,2.19 -0.74,0.56 -1.66,0.84 -2.76,0.84 -0.9,0 -1.7,-0.2 -2.42,-0.61 -0.7,-0.42 -1.26,-1 -1.67,-1.75 -0.4,-0.76 -0.6,-1.63 -0.6,-2.63 0,-0.99 0.19,-1.86 0.58,-2.61 0.4,-0.76 0.95,-1.34 1.65,-1.75 0.72,-0.41 1.53,-0.61 2.45,-0.61 0.89,0 1.67,0.2 2.37,0.6 0.69,0.4 1.23,0.96 1.62,1.68 0.39,0.71 0.58,1.53 0.58,2.47zm-2.03 -0.63c-0.01,-0.74 -0.27,-1.32 -0.77,-1.77 -0.5,-0.44 -1.12,-0.67 -1.86,-0.67 -0.67,0 -1.24,0.22 -1.72,0.67 -0.48,0.43 -0.76,1.02 -0.85,1.77l5.19 0z"/>
   <path class="fil1" d="M26.52 14.66c-0.35,0 -0.65,-0.12 -0.89,-0.37 -0.24,-0.24 -0.36,-0.55 -0.36,-0.91 0,-0.36 0.12,-0.67 0.36,-0.91 0.24,-0.25 0.53,-0.37 0.89,-0.37 0.34,0 0.63,0.12 0.87,0.37 0.24,0.24 0.36,0.55 0.36,0.91 0,0.36 -0.12,0.67 -0.36,0.91 -0.24,0.24 -0.53,0.37 -0.87,0.37z"/>
   <path class="fil1" d="M104.46 10.91c0,0.62 -0.18,1.2 -0.54,1.75 -0.35,0.55 -0.86,1.01 -1.55,1.38 -0.68,0.37 -1.48,0.6 -2.42,0.67l0 1.51 -1.4 0 0 -1.51c-1.35,-0.11 -2.44,-0.48 -3.28,-1.1 -0.83,-0.62 -1.25,-1.44 -1.25,-2.46l2.63 0c0.04,0.48 0.22,0.89 0.54,1.21 0.32,0.31 0.77,0.51 1.36,0.6l0 -4.09c-0.96,-0.21 -1.75,-0.42 -2.35,-0.63 -0.6,-0.22 -1.12,-0.57 -1.55,-1.04 -0.42,-0.47 -0.63,-1.12 -0.63,-1.94 0,-1.03 0.42,-1.88 1.25,-2.55 0.83,-0.68 1.93,-1.08 3.28,-1.19l0 -1.51 1.4 0 0 1.51c1.26,0.1 2.28,0.45 3.04,1.04 0.78,0.58 1.22,1.39 1.32,2.42l-2.63 0c-0.04,-0.38 -0.22,-0.73 -0.52,-1.02 -0.3,-0.31 -0.7,-0.52 -1.21,-0.63l0 4.02c0.96,0.2 1.75,0.41 2.35,0.63 0.6,0.21 1.11,0.55 1.53,1.02 0.42,0.46 0.63,1.1 0.63,1.92zm-7.94 -5.77c0,0.51 0.17,0.91 0.52,1.19 0.36,0.29 0.86,0.51 1.51,0.69l0 -3.76c-0.62,0.06 -1.11,0.25 -1.49,0.58 -0.36,0.32 -0.54,0.76 -0.54,1.3zm3.43 7.82c0.63,-0.09 1.13,-0.3 1.49,-0.65 0.36,-0.36 0.54,-0.79 0.54,-1.28 0,-0.5 -0.18,-0.88 -0.54,-1.15 -0.35,-0.29 -0.84,-0.52 -1.49,-0.69l0 3.78z"/>
   <path class="fil2" d="M2.26 1.5l2.42 0 3.05 9.13 3.06 -9.13 2.41 0 2.19 13.09 -2.4 0 -1.4 -8.27 -2.77 8.27 -2.2 0 -2.76 -8.27 -1.43 8.27 -2.43 0 2.26 -13.09zm13.8 3.41l2.49 0 2.51 6.06 2.78 -6.06 2.49 0 -6.06 13.22 -2.49 0 1.97 -4.25 -3.69 -8.97z"/>
  </g>
 </g>
</svg>
