<?xml version="1.0" encoding="UTF-8"?>
<!DOCTYPE svg PUBLIC "-//W3C//DTD SVG 1.1//EN" "http://www.w3.org/Graphics/SVG/1.1/DTD/svg11.dtd">
<!-- Creator: CorelDRAW 2020 (64 Bit) -->
<svg xmlns="http://www.w3.org/2000/svg" xml:space="preserve" width="91.8007mm" height="65mm" version="1.1" style="shape-rendering:geometricPrecision; text-rendering:geometricPrecision; image-rendering:optimizeQuality; fill-rule:evenodd; clip-rule:evenodd"
viewBox="0 0 118.85 84.15"
 xmlns:xlink="http://www.w3.org/1999/xlink"
 xmlns:xodm="http://www.corel.com/coreldraw/odm/2003">
 <defs>
  <style type="text/css">
   <![CDATA[
    .str0 {stroke:#282829;stroke-width:0.65;stroke-linejoin:round;stroke-miterlimit:22.9256}
    .fil0 {fill:#282829}
    .fil1 {fill:#FBAF30}
    .fil2 {fill:#282829;fill-rule:nonzero}
   ]]>
  </style>
 </defs>
 <g id="Camada_x0020_1">
  <metadata id="CorelCorpID_0Corel-Layer"/>
  <path class="fil0" d="M95.02 0.01c-22.06,0 -43.55,-0 -65.54,-0.01l-0.2 0 -0.96 0 -0.15 0 -1.01 0 -0.1 0 -1.06 0 -0.05 0 -1.11 0c-0.15,0.18 -0.29,0.35 -0.43,0.53 -0.14,0.18 -0.29,0.36 -0.43,0.54 -0.14,0.18 -0.28,0.36 -0.42,0.54 -0.14,0.18 -0.28,0.36 -0.42,0.55 -0.14,0.18 -0.27,0.37 -0.41,0.55 -0.14,0.18 -0.27,0.37 -0.4,0.56 -0.13,0.19 -0.27,0.37 -0.4,0.56 -0.13,0.19 -0.26,0.38 -0.39,0.57 -0.13,0.19 -0.26,0.38 -0.39,0.57 -0.13,0.19 -0.26,0.38 -0.38,0.58 -0.13,0.19 -0.25,0.39 -0.38,0.58 -0.12,0.19 -0.25,0.39 -0.37,0.58 -0.12,0.2 -0.24,0.39 -0.36,0.59 -0.12,0.2 -0.24,0.39 -0.36,0.59 -0.12,0.2 -0.24,0.4 -0.35,0.6 -0.12,0.2 -0.23,0.4 -0.35,0.6 -0.11,0.2 -0.23,0.4 -0.34,0.61l0 0c-0.11,0.2 -0.22,0.41 -0.33,0.61 -0.11,0.2 -0.22,0.41 -0.33,0.61 -0.11,0.21 -0.22,0.41 -0.32,0.62 -0.11,0.21 -0.21,0.41 -0.32,0.62l0 0c-0.1,0.21 -0.21,0.42 -0.31,0.63l0 0c-0.1,0.21 -0.2,0.42 -0.3,0.63 -0.1,0.21 -0.2,0.42 -0.3,0.63 -0.1,0.21 -0.19,0.42 -0.29,0.64 -0.1,0.21 -0.19,0.43 -0.28,0.64l0 0c-0.09,0.21 -0.19,0.43 -0.28,0.65 -0.09,0.22 -0.18,0.43 -0.27,0.65l0 0c-0.09,0.22 -0.18,0.43 -0.26,0.65 -0.09,0.22 -0.17,0.44 -0.26,0.66l0 0c-0.08,0.22 -0.17,0.44 -0.25,0.66 -0.08,0.22 -0.16,0.44 -0.24,0.66 -0.08,0.22 -0.16,0.44 -0.24,0.67 -0.08,0.22 -0.15,0.45 -0.23,0.67 -0.08,0.22 -0.15,0.45 -0.22,0.67 -0.07,0.23 -0.15,0.45 -0.22,0.68l0 0c-0.07,0.23 -0.14,0.45 -0.21,0.68l0 0c-0.07,0.23 -0.14,0.46 -0.2,0.68l0 0c-0.07,0.23 -0.13,0.46 -0.2,0.69l0 0c-0.06,0.23 -0.13,0.46 -0.19,0.69 -0.06,0.23 -0.12,0.46 -0.18,0.69 -0.06,0.23 -0.12,0.46 -0.17,0.7 -0.06,0.23 -0.11,0.47 -0.17,0.7l0 0c-0.05,0.23 -0.11,0.47 -0.16,0.7 -0.05,0.23 -0.1,0.47 -0.15,0.71l0 0c-0.05,0.24 -0.1,0.47 -0.14,0.71 -0.05,0.24 -0.09,0.47 -0.14,0.71l0 0c-0.04,0.24 -0.09,0.48 -0.13,0.71 -0.04,0.24 -0.08,0.48 -0.12,0.72 -0.04,0.24 -0.08,0.48 -0.11,0.72l0 0c-0.04,0.24 -0.07,0.48 -0.11,0.72l0 0c-0.03,0.24 -0.07,0.48 -0.1,0.72l0 0c-0.03,0.24 -0.06,0.48 -0.09,0.73l0 0c-0.03,0.24 -0.06,0.49 -0.08,0.73l0 0c-0.03,0.24 -0.05,0.49 -0.08,0.73 -0.02,0.24 -0.05,0.49 -0.07,0.73 -0.02,0.25 -0.04,0.49 -0.06,0.74 -0.02,0.25 -0.04,0.49 -0.05,0.74l0 0c-0.02,0.25 -0.03,0.49 -0.04,0.74l0 0c-0.01,0.25 -0.03,0.5 -0.04,0.74 -0.01,0.25 -0.02,0.5 -0.03,0.75 -0.01,0.25 -0.01,0.5 -0.02,0.75 -0.01,0.25 -0.01,0.5 -0.01,0.75 -0,0.25 -0,0.5 -0,0.75 0,0.25 0,0.5 0,0.75 0,0.25 0.01,0.5 0.01,0.75 0.01,0.25 0.01,0.5 0.02,0.75 0.01,0.25 0.02,0.5 0.03,0.75 0.01,0.25 0.02,0.5 0.04,0.74l0 0c0.01,0.25 0.03,0.49 0.04,0.74l0 0c0.02,0.25 0.03,0.49 0.05,0.74 0.02,0.25 0.04,0.49 0.06,0.74 0.02,0.25 0.04,0.49 0.07,0.73 0.02,0.24 0.05,0.49 0.08,0.73l0 0c0.03,0.24 0.05,0.49 0.08,0.73l0 0c0.03,0.24 0.06,0.48 0.09,0.73l0 0c0.03,0.24 0.06,0.48 0.1,0.72l0 0c0.03,0.24 0.07,0.48 0.11,0.72l0 0c0.04,0.24 0.08,0.48 0.11,0.72 0.04,0.24 0.08,0.48 0.12,0.72 0.04,0.24 0.09,0.48 0.13,0.71l0 0c0.04,0.24 0.09,0.47 0.14,0.71 0.05,0.24 0.1,0.47 0.14,0.71l0 0c0.05,0.24 0.1,0.47 0.15,0.71 0.05,0.23 0.1,0.47 0.16,0.7l0 0c0.05,0.23 0.11,0.47 0.17,0.7 0.06,0.23 0.11,0.46 0.17,0.7 0.06,0.23 0.12,0.46 0.18,0.69 0.06,0.23 0.12,0.46 0.19,0.69l0 0c0.06,0.23 0.13,0.46 0.2,0.69l0 0c0.07,0.23 0.13,0.46 0.2,0.68l0 0c0.07,0.23 0.14,0.45 0.21,0.68l0 0c0.07,0.23 0.14,0.45 0.22,0.68 0.07,0.23 0.15,0.45 0.22,0.67 0.08,0.22 0.15,0.45 0.23,0.67 0.08,0.22 0.16,0.45 0.24,0.67 0.08,0.22 0.16,0.44 0.24,0.66 0.08,0.22 0.17,0.44 0.25,0.66l0 0c0.08,0.22 0.17,0.44 0.26,0.66 0.09,0.22 0.17,0.44 0.26,0.65l0 0c0.09,0.22 0.18,0.43 0.27,0.65 0.09,0.22 0.18,0.43 0.28,0.65l0 0c0.09,0.21 0.19,0.43 0.28,0.64 0.1,0.21 0.19,0.43 0.29,0.64 0.1,0.21 0.2,0.42 0.3,0.63 0.1,0.21 0.2,0.42 0.3,0.63l0 0c0.1,0.21 0.21,0.42 0.31,0.63l0 0c0.1,0.21 0.21,0.42 0.32,0.62 0.11,0.21 0.21,0.41 0.32,0.62 0.11,0.21 0.22,0.41 0.33,0.61 0.11,0.2 0.22,0.41 0.33,0.61l0 0c0.11,0.2 0.23,0.4 0.34,0.61 0.11,0.2 0.23,0.4 0.35,0.6 0.12,0.2 0.23,0.4 0.35,0.6 0.12,0.2 0.24,0.4 0.36,0.59 0.12,0.2 0.24,0.39 0.36,0.59 0.12,0.2 0.25,0.39 0.37,0.58 0.12,0.19 0.25,0.39 0.38,0.58 0.13,0.19 0.25,0.38 0.38,0.58 0.13,0.19 0.26,0.38 0.39,0.57 0.13,0.19 0.26,0.38 0.39,0.57 0.13,0.19 0.27,0.38 0.4,0.56 0.13,0.19 0.27,0.37 0.4,0.56 0.14,0.18 0.27,0.37 0.41,0.55 0.14,0.18 0.28,0.37 0.42,0.55 0.14,0.18 0.28,0.36 0.42,0.54 0.14,0.18 0.28,0.36 0.43,0.54 0.14,0.18 0.29,0.36 0.43,0.53l1.11 0 0.05 0 1.06 0 0.1 0 1.01 0 0.15 0 0.96 0 0.2 0c21.99,-0 43.48,-0.01 65.54,-0.01 2.22,0.01 3.68,-1.49 3.73,-3.55l0 -0.27 0 -1.01 0 -0.26 0 -1.01 0 -0.26 0 -1.01 0 -0.26 0 -1.01 0 -0.25 0 -1.02 0 -0.25 0 -1.02 0 -0.25 0 -1.02 0 -0.24 0 -1.02 0 -0.24 0 -1.03 0 -0.24 0 -1.03 0 -0.23 0 -1.03 0 -0.23 0 -1.03 0 -0.23 0 -1.03 0 -0.23 0 -1.03 0 -0.22 0 -1.04 0 -0.22 0 -1.04 0 -0.22 0 -1.04 0 -0.22 0 -1.04 0 -0.21 0 -1.04 0 -0.21 0 -1.04 0 -0.21 0 -1.04 0 -0.21 0 -1.04 0 -0.21 0 -1.04 0 -0.21 0 -1.05 0 -0.21 0 -1.05 0 -0.21 0 -1.05 0 -0.21 0 -1.05 0 -0.2 0 -1.05 0 -0.2 0 -1.05 0 -0.2 0 -1.05 0 -0.2 0 -1.05 0 -0.2 0 -1.05 0 -0.2 0 -1.05 0 -0.2 0 -1.05 0 -0.2 0 -1.05 0 -0.21 0 -1.05 0 -0.21 0 -1.05 0 -0.21 0 -1.05 0 -0.21 0 -1.04 0 -0.21 0 -1.04 0 -0.21 0 -1.04 0 -0.21 0 -1.04 0 -0.21 0 -1.04 0 -0.21 0 -1.04 0 -0.22 0 -1.04 0 -0.22 0 -1.04 0 -0.22 0 -1.04 0 -0.22 0 -1.03 0 -0.23 0 -1.03 0 -0.23 0 -1.03 0 -0.23 0 -1.03 0 -0.23 0 -1.03 0 -0.24 0 -1.03 0 -0.24 0 -1.02 0 -0.24 0 -1.02 0 -0.25 0 -1.02 0 -0.25 0 -1.02 0 -0.25 0 -1.01 0 -0.26 0 -1.01 0 -0.26 0 -1.01 0 -0.26 0 -1.01 0 -0.27c-0.05,-2.06 -1.5,-3.56 -3.73,-3.55z"/>
  <path class="fil1 str0" d="M40.15 4.13c-21.12,0 -27.17,22.94 -16.73,34.73 3.59,-4.15 8.11,-6.59 14.34,-7.33 -3.27,-1.14 -4.7,-3.51 -4.92,-5.97 -0.43,-4.75 4.59,-8.6 9.23,-6.46 2.09,0.97 3.96,2.99 3.96,6.9 6.04,1.53 10.53,4.68 14.22,8.88 0.06,-4.28 0.04,-6.07 0.02,-10.72 -0.02,-9.81 -9.3,-20.02 -20.12,-20.02z"/>
  <path class="fil1 str0" d="M39.88 45.99c-4.5,0.17 -11.74,-1.33 -16.46,-7.13 4.01,-4.58 8.64,-6.64 14.34,-7.33 8.27,-0.69 16.15,4.16 19.11,9.32 3.48,6.05 6.96,12.1 10.44,18.16 -2.81,4.81 -5.62,9.62 -8.43,14.43 -4.28,-7.45 -8.57,-14.9 -12.85,-22.35 -1.51,-2.63 -2.69,-5.1 -6.15,-5.1z"/>
  <polygon class="fil1 str0" points="58.88,73.43 80.4,36.23 80.4,64.68 71.38,80.02 62.67,80.02 "/>
  <polygon class="fil1 str0" points="80.4,80.02 80.4,36 82.96,31.56 94.23,31.56 94.23,80.02 "/>
  <path class="fil1 str0" d="M63.22 19.54c0.76,3.16 0.44,7.66 0.5,11.97 4.82,0 11.86,0.05 16.68,0.05 0,1.48 0,2.96 0,4.44 0.85,-1.48 1.7,-2.96 2.55,-4.44 3.76,0 7.52,0 11.27,0 0,-9.14 0,-18.29 0,-27.43 -12.47,0 -29.76,-0.08 -42.22,-0.08 4.72,2.78 8.61,7.34 10.25,11.99 5.08,0 13.07,0.05 18.15,0.05 0,1.17 0,2.33 0,3.5 -4.76,0 -12.42,-0.05 -17.18,-0.05z"/>
  <path class="fil2" d="M22.2 0c-4.52,5.67 -8.15,12.13 -10.66,19.15 -2.56,7.15 -3.95,14.88 -3.95,22.94 0,8.07 1.4,15.8 3.95,22.94 2.51,7.01 6.13,13.45 10.64,19.11l-3.27 0c-4.11,-5.48 -7.44,-11.62 -9.8,-18.24 -2.65,-7.42 -4.1,-15.44 -4.1,-23.81 0,-8.37 1.45,-16.39 4.1,-23.81 2.37,-6.63 5.71,-12.79 9.83,-18.28l3.27 0z"/>
  <path class="fil2" d="M16.14 0c-4.19,5.66 -7.55,12.11 -9.88,19.12 -2.37,7.15 -3.67,14.89 -3.67,22.98 0,8.09 1.3,15.83 3.67,22.98 2.32,6.99 5.68,13.43 9.86,19.08l-3.18 0c-3.83,-5.49 -6.92,-11.64 -9.13,-18.27 -2.46,-7.42 -3.81,-15.44 -3.81,-23.78 0,-8.35 1.35,-16.36 3.81,-23.78 2.21,-6.65 5.31,-12.81 9.15,-18.31l3.18 0z"/>
  <path class="fil1 str0" d="M15.61 51.73c0.03,-3.49 0.96,-7.29 2.2,-10.15 2.77,4.33 6.89,7.71 11.77,9.55 -1.39,12.36 12.35,18.21 20.06,13.31 3.02,5.21 6.13,10.37 9.15,15.59 -6.57,0 -10.73,0.04 -16.06,-0 -12.47,0.13 -27.09,-9.46 -27.12,-28.29z"/>
  <path class="fil2" d="M118.85 82.46l-1.37 0 0 -0.59 1.37 0 0 0.59zm0 -0.74l-1.37 0 0 -0.59 1.37 0 0 0.59zm0 -0.74l-1.37 0 0 -0.59 1.37 0 0 0.59zm0 2.38l-1.37 0.59 -2.74 0 -1.37 -0.59 5.48 0zm0 -0.15l-5.48 0 0 -0.59 5.48 0 0 0.59zm-4.11 -0.74l-1.37 0 0 -0.59 1.37 0 0 0.59zm0 -0.74l-1.37 0 0 -0.59 1.37 0 0 0.59zm0 -0.74l-1.37 0 0 -0.59 1.37 0 0 0.59zm4.11 -0.74l-6.85 0 0 -0.59 6.85 0 0 0.59zm0 -0.74l-6.85 0 0 -0.59 6.85 0 0 0.59z"/>
  <path id="1" class="fil2" d="M118.85 76.52l-1.37 0 0 -0.59 1.37 0 0 0.59zm0 -0.74l-1.37 0 0 -0.59 1.37 0 0 0.59zm0 -0.74l-1.37 0 0 -0.59 1.37 0 0 0.59zm0 -0.74l-1.37 0 0 -0.59 1.37 0 0 0.59zm0 -0.74l-1.37 0 0 -0.59 1.37 0.59zm-2.06 2.97l-1.37 0 0 -0.59 1.37 0 0 0.59zm0 -0.74l-1.37 0 0 -0.59 1.37 0 0 0.59zm0 -0.74l-1.37 0 0 -0.59 1.37 0 0 0.59zm2.06 2.38l-1.37 0.59 -2.74 0 -1.37 -0.59 5.48 0zm0 -0.15l-5.48 0 0 -0.59 5.48 0 0 0.59zm-4.11 -0.74l-1.37 0 0 -0.59 1.37 0 0 0.59zm0 -0.74l-1.37 0 0 -0.59 1.37 0 0 0.59zm0 -0.74l-1.37 0 0 -0.59 1.37 0 0 0.59zm2.06 -0.74l-3.43 0 0 -0.59 3.43 0 0 0.59zm0 -0.74l-3.43 0 1.37 -0.59 2.06 0 0 0.59z"/>
  <path id="2" class="fil2" d="M118.85 71.48l-1.37 0.59 0 -0.59 1.37 0zm0 -0.15l-1.37 0 0 -0.59 1.37 0 0 0.59zm0 -0.74l-1.37 0 0 -0.59 1.37 0 0 0.59zm0 -0.74l-1.37 0 0 -0.59 1.37 0 0 0.59zm0 -0.74l-1.37 0 0 -0.59 1.37 0 0 0.59zm-2.06 1.49l-1.37 0 0 -0.59 1.37 0 0 0.59zm0 -0.74l-1.37 0 0 -0.59 1.37 0 0 0.59zm0 -0.74l-1.37 0 0 -0.59 1.37 0 0 0.59zm2.06 -0.74l-3.43 0 0 -0.59 3.43 0 0 0.59zm0 -0.74l-3.43 0 1.37 -0.59 0.68 0 1.37 0.59zm-2.06 3.87l-1.37 0.59 -0.69 0 -1.37 -0.59 3.43 0zm0 -0.15l-3.43 0 0 -0.59 3.43 0 0 0.59zm-2.06 -0.74l-1.37 0 0 -0.59 1.37 0 0 0.59zm0 -0.74l-1.37 0 0 -0.59 1.37 0 0 0.59zm0 -0.74l-1.37 0 0 -0.59 1.37 0 0 0.59zm0 -0.74l-1.37 0 0 -0.59 1.37 0 0 0.59zm0 -0.74l-1.37 0 1.37 -0.59 0 0.59z"/>
  <path id="3" class="fil2" d="M118.85 64.65l-1.37 0 0 -0.59 1.37 0 0 0.59zm0 -0.74l-1.37 0 0 -0.59 1.37 0 0 0.59zm0 -0.74l-1.37 0 0 -0.59 1.37 0 0 0.59zm0 -0.74l-1.37 0 0 -0.59 1.37 0 0 0.59zm0 -0.74l-1.37 0 0 -0.59 1.37 0.59zm-2.06 2.97l-1.37 0 0 -0.59 1.37 0 0 0.59zm0 -0.74l-1.37 0 0 -0.59 1.37 0 0 0.59zm0 -0.74l-1.37 0 0 -0.59 1.37 0 0 0.59zm2.06 2.38l-1.37 0.59 -2.74 0 -1.37 -0.59 5.48 0zm0 -0.15l-5.48 0 0 -0.59 5.48 0 0 0.59zm-4.11 -0.74l-1.37 0 0 -0.59 1.37 0 0 0.59zm0 -0.74l-1.37 0 0 -0.59 1.37 0 0 0.59zm0 -0.74l-1.37 0 0 -0.59 1.37 0 0 0.59zm2.06 -0.74l-3.43 0 0 -0.59 3.43 0 0 0.59zm0 -0.74l-3.43 0 1.37 -0.59 2.06 0 0 0.59z"/>
  <path id="4" class="fil2" d="M118.85 60.2l-5.48 0 0 -0.59 5.48 0 0 0.59zm0 -0.74l-5.48 0 0 -0.59 5.48 0 0 0.59zm-4.11 -0.74l-1.37 0 0 -0.59 1.37 0 0 0.59zm0 -0.74l-1.37 0 0 -0.59 1.37 0 0 0.59zm0 -0.74l-1.37 0 0 -0.59 1.37 0 0 0.59zm4.11 -0.74l-5.48 0 0 -0.59 5.48 0 0 0.59zm0 -0.74l-5.48 0 1.37 -0.59 4.11 0 0 0.59z"/>
  <path id="5" class="fil2" d="M118.85 51.74l-0.69 0.29 -2.06 0 1.37 -0.59 1.37 0 0 0.3zm0 -0.45l-1.37 0 -1.37 -0.59 2.06 0 0.69 0.3 0 0.29zm-0.69 0.89l-1.37 0.59 -2.06 0 1.37 -0.59 2.06 0zm0 -1.64l-2.06 0 -1.37 -0.59 2.06 0 1.37 0.59zm-2.74 3.13l-1.37 0.59 -0.68 0 0 -0.59 2.06 0zm1.37 -0.74l-1.37 0.59 -2.06 0 0 -0.59 3.43 0zm0 -3.13l-3.43 0 0 -0.59 2.06 0 1.37 0.59zm-1.37 -0.74l-2.06 0 0 -0.59 0.68 0 1.37 0.59z"/>
  <path id="6" class="fil2" d="M118.85 46.09l-1.37 0 0 -0.59 1.37 0 0 0.59zm0 -0.74l-1.37 0 0 -0.59 1.37 0 0 0.59zm0 -0.74l-1.37 0 0 -0.59 1.37 0 0 0.59zm0 2.38l-1.37 0.59 -2.74 0 -1.37 -0.59 5.48 0zm0 -0.15l-5.48 0 0 -0.59 5.48 0 0 0.59zm-4.11 -0.74l-1.37 0 0 -0.59 1.37 0 0 0.59zm0 -0.74l-1.37 0 0 -0.59 1.37 0 0 0.59zm0 -0.74l-1.37 0 0 -0.59 1.37 0 0 0.59zm4.11 -0.74l-5.48 0 0 -0.59 5.48 0 0 0.59zm0 -0.74l-5.48 0 1.37 -0.59 2.74 0 1.37 0.59z"/>
  <path id="7" class="fil2" d="M118.85 40.15l-1.37 0 0 -0.59 1.37 0 0 0.59zm0 -0.74l-1.37 0 0 -0.59 1.37 0 0 0.59zm0 1.64l-1.37 0.59 -5.48 0 0 -0.59 6.85 0zm0 -0.15l-6.85 0 0 -0.59 6.85 0 0 0.59z"/>
  <path id="8" class="fil2" d="M118.85 35.4l-0.69 0.29 -2.06 0 1.37 -0.59 1.37 0 0 0.3zm0 -0.45l-1.37 0 -1.37 -0.59 2.06 0 0.69 0.3 0 0.29zm-0.69 0.89l-1.37 0.59 -2.06 0 1.37 -0.59 2.06 0zm0 -1.64l-2.06 0 -1.37 -0.59 2.06 0 1.37 0.59zm-2.74 3.13l-1.37 0.59 -0.68 0 0 -0.59 2.06 0zm1.37 -0.74l-1.37 0.59 -2.06 0 0 -0.59 3.43 0zm0 -3.13l-3.43 0 0 -0.59 2.06 0 1.37 0.59zm-1.37 -0.74l-2.06 0 0 -0.59 0.68 0 1.37 0.59z"/>
  <path id="9" class="fil2" d="M118.85 31.24l-5.48 0 0 -0.59 5.48 0 0 0.59zm0 -0.74l-5.48 0 0 -0.59 5.48 0 0 0.59zm-6.17 0.74l-0.69 0 0 -0.59 0.69 0 0 0.59zm0 -0.74l-0.69 0 0 -0.59 0.69 0 0 0.59z"/>
  <path id="10" class="fil2" d="M118.85 29.01l-5.48 0 0 -0.59 5.48 0 0 0.59zm0 -0.74l-5.48 0 0 -0.59 5.48 0 0 0.59zm-4.11 -0.74l-1.37 0 0 -0.59 1.37 0 0 0.59zm4.11 -0.74l-5.48 0 0 -0.59 5.48 0 0 0.59zm0 -0.74l-5.48 0 0 -0.59 5.48 0 0 0.59zm-4.11 -0.74l-1.37 0 0 -0.59 1.37 0 0 0.59zm4.11 -0.74l-5.48 0 0 -0.59 5.48 0 0 0.59zm0 -0.74l-5.48 0 1.37 -0.59 4.11 0 0 0.59z"/>
  <path id="11" class="fil2" d="M118.85 20.84l-1.37 0 0 -0.59 1.37 0 0 0.59zm0 -0.74l-1.37 0 0 -0.59 1.37 0 0 0.59zm0 -0.74l-1.37 0 0 -0.59 1.37 0 0 0.59zm0 -0.74l-1.37 0 0 -0.59 1.37 0 0 0.59zm0 -0.74l-1.37 0 0 -0.59 1.37 0.59zm-2.06 2.97l-1.37 0 0 -0.59 1.37 0 0 0.59zm0 -0.74l-1.37 0 0 -0.59 1.37 0 0 0.59zm0 -0.74l-1.37 0 0 -0.59 1.37 0 0 0.59zm2.06 2.38l-1.37 0.59 -2.74 0 -1.37 -0.59 5.48 0zm0 -0.15l-5.48 0 0 -0.59 5.48 0 0 0.59zm-4.11 -0.74l-1.37 0 0 -0.59 1.37 0 0 0.59zm0 -0.74l-1.37 0 0 -0.59 1.37 0 0 0.59zm0 -0.74l-1.37 0 0 -0.59 1.37 0 0 0.59zm2.06 -0.74l-3.43 0 0 -0.59 3.43 0 0 0.59zm0 -0.74l-3.43 0 1.37 -0.59 2.06 0 0 0.59z"/>
  <path id="12" class="fil2" d="M118.85 16.39l-5.48 0 0 -0.59 5.48 0 0 0.59zm0 -0.74l-5.48 0 0 -0.59 5.48 0 0 0.59zm-4.11 -0.74l-1.37 0 0 -0.59 1.37 0 0 0.59zm0 -0.74l-1.37 0 0 -0.59 1.37 0 0 0.59zm0 -0.74l-1.37 0 0 -0.59 1.37 0 0 0.59zm4.11 -0.74l-5.48 0 0 -0.59 5.48 0 0 0.59zm0 -0.74l-5.48 0 1.37 -0.59 4.11 0 0 0.59z"/>
  <path id="13" class="fil2" d="M118.85 8.22l-1.37 0 0 -0.59 1.37 0 0 0.59zm0 -0.74l-1.37 0 0 -0.59 1.37 0 0 0.59zm0 -0.74l-1.37 0 0 -0.59 1.37 0.59zm-4.11 3.72l-1.37 -0.59 1.37 0 0 0.59zm0 -2.23l-1.37 0 0 -0.59 1.37 0 0 0.59zm0 -0.74l-1.37 0 1.37 -0.59 0 0.59zm4.11 1.64l-1.37 0.59 -5.48 0 0 -0.59 6.85 0zm0 -0.15l-6.85 0 0 -0.59 6.85 0 0 0.59z"/>
  <path id="14" class="fil2" d="M118.85 3.77l-1.37 0 0 -0.59 1.37 0 0 0.59zm0 -0.74l-1.37 0 0 -0.59 1.37 0 0 0.59zm0 -0.74l-1.37 0 0 -0.59 1.37 0 0 0.59zm0 2.38l-1.37 0.59 -2.74 0 -1.37 -0.59 5.48 0zm0 -0.15l-5.48 0 0 -0.59 5.48 0 0 0.59zm-4.11 -0.74l-1.37 0 0 -0.59 1.37 0 0 0.59zm0 -0.74l-1.37 0 0 -0.59 1.37 0 0 0.59zm0 -0.74l-1.37 0 0 -0.59 1.37 0 0 0.59zm4.11 -0.74l-5.48 0 0 -0.59 5.48 0 0 0.59zm0 -0.74l-5.48 0 1.37 -0.59 2.74 0 1.37 0.59z"/>
  <g id="_1484840122512">
   <path class="fil2" d="M107.92 83.36l-1.37 0.59 0 -0.59 1.37 0zm0 -0.15l-1.37 0 0 -0.59 1.37 0 0 0.59zm0 -0.74l-1.37 0 0 -0.59 1.37 0 0 0.59zm0 -0.74l-1.37 0 0 -0.59 1.37 0 0 0.59zm0 -0.74l-1.37 0 0 -0.59 1.37 0 0 0.59zm-2.06 1.49l-1.37 0 0 -0.59 1.37 0 0 0.59zm0 -0.74l-1.37 0 0 -0.59 1.37 0 0 0.59zm0 -0.74l-1.37 0 0 -0.59 1.37 0 0 0.59zm2.06 -0.74l-3.43 0 0 -0.59 3.43 0 0 0.59zm0 -0.74l-3.43 0 1.37 -0.59 0.68 0 1.37 0.59zm-2.06 3.87l-1.37 0.59 -0.69 0 -1.37 -0.59 3.43 0zm0 -0.15l-3.43 0 0 -0.59 3.43 0 0 0.59zm-2.06 -0.74l-1.37 0 0 -0.59 1.37 0 0 0.59zm0 -0.74l-1.37 0 0 -0.59 1.37 0 0 0.59zm0 -0.74l-1.37 0 0 -0.59 1.37 0 0 0.59zm0 -0.74l-1.37 0 0 -0.59 1.37 0 0 0.59zm0 -0.74l-1.37 0 1.37 -0.59 0 0.59z"/>
   <path id="1" class="fil2" d="M107.92 78.02l-5.48 0 0 -0.59 5.48 0 0 0.59zm0 -0.74l-5.48 0 0 -0.59 5.48 0 0 0.59zm-4.11 -0.74l-1.37 0 0 -0.59 1.37 0 0 0.59zm4.11 -0.74l-5.48 0 0 -0.59 5.48 0 0 0.59zm0 -0.74l-5.48 0 0 -0.59 5.48 0 0 0.59zm-4.11 -0.74l-1.37 0 0 -0.59 1.37 0 0 0.59zm4.11 -0.74l-5.48 0 0 -0.59 5.48 0 0 0.59zm0 -0.74l-5.48 0 1.37 -0.59 4.11 0 0 0.59z"/>
   <path id="2" class="fil2" d="M105.86 69.85l-1.37 0 0 -0.59 1.37 0 0 0.59zm0 -0.74l-1.37 0 0 -0.59 1.37 0 0 0.59zm2.06 2.23l-5.48 0 -1.37 -0.59 6.85 0 0 0.59zm0 -0.74l-6.85 0 0 -0.59 6.85 0 0 0.59zm-5.48 -0.74l-1.37 0 0 -0.59 1.37 0 0 0.59zm0 -0.74l-1.37 0 0 -0.59 1.37 0 0 0.59zm0 -0.74l-1.37 0 0 -0.59 1.37 0 0 0.59z"/>
   <path id="3" class="fil2" d="M107.92 58.7l-1.37 0 0 -0.59 1.37 0 0 0.59zm0 -0.74l-1.37 0 0 -0.59 1.37 0 0 0.59zm0 -0.74l-1.37 0 0 -0.59 1.37 0.59zm-4.11 3.72l-1.37 -0.59 1.37 0 0 0.59zm0 -2.23l-1.37 0 0 -0.59 1.37 0 0 0.59zm0 -0.74l-1.37 0 1.37 -0.59 0 0.59zm4.11 1.64l-1.37 0.59 -5.48 0 0 -0.59 6.85 0zm0 -0.15l-6.85 0 0 -0.59 6.85 0 0 0.59z"/>
   <path id="4" class="fil2" d="M107.92 54.25l-1.37 0 0 -0.59 1.37 0 0 0.59zm0 -0.74l-1.37 0 0 -0.59 1.37 0 0 0.59zm0 -0.74l-1.37 0 0 -0.59 1.37 0 0 0.59zm0 -0.74l-1.37 0 0 -0.59 1.37 0 0 0.59zm0 -0.74l-1.37 0 0 -0.59 1.37 0.59zm-2.06 2.97l-1.37 0 0 -0.59 1.37 0 0 0.59zm0 -0.74l-1.37 0 0 -0.59 1.37 0 0 0.59zm0 -0.74l-1.37 0 0 -0.59 1.37 0 0 0.59zm2.06 2.38l-1.37 0.59 -2.74 0 -1.37 -0.59 5.48 0zm0 -0.15l-5.48 0 0 -0.59 5.48 0 0 0.59zm-4.11 -0.74l-1.37 0 0 -0.59 1.37 0 0 0.59zm0 -0.74l-1.37 0 0 -0.59 1.37 0 0 0.59zm0 -0.74l-1.37 0 0 -0.59 1.37 0 0 0.59zm2.06 -0.74l-3.43 0 0 -0.59 3.43 0 0 0.59zm0 -0.74l-3.43 0 1.37 -0.59 2.06 0 0 0.59z"/>
   <path id="5" class="fil2" d="M107.92 48.32l-1.37 0 0 -0.59 1.37 0 0 0.59zm0 -0.74l-1.37 0 0 -0.59 1.37 0 0 0.59zm0 -0.74l-1.37 0 0 -0.59 1.37 0 0 0.59zm0 -0.74l-1.37 0 0 -0.59 1.37 0 0 0.59zm0 -0.74l-1.37 0 0 -0.59 1.37 0.59zm0 3.87l-1.37 0.59 -2.74 0 -1.37 -0.59 5.48 0zm0 -0.15l-5.48 0 0 -0.59 5.48 0 0 0.59zm-4.11 -0.74l-1.37 0 0 -0.59 1.37 0 0 0.59zm0 -0.74l-1.37 0 0 -0.59 1.37 0 0 0.59zm0 -0.74l-1.37 0 0 -0.59 1.37 0 0 0.59zm0 -0.74l-1.37 0 0 -0.59 1.37 0 0 0.59zm0 -0.74l-1.37 0 1.37 -0.59 0 0.59z"/>
   <path id="6" class="fil2" d="M107.92 43.87l-5.48 0 0 -0.59 5.48 0 0 0.59zm0 -0.74l-5.48 0 0 -0.59 5.48 0 0 0.59zm-4.11 -0.74l-1.37 0 0 -0.59 1.37 0 0 0.59zm0 -0.74l-1.37 0 0 -0.59 1.37 0 0 0.59zm0 -0.74l-1.37 0 0 -0.59 1.37 0 0 0.59zm4.11 -0.74l-5.48 0 0 -0.59 5.48 0 0 0.59zm0 -0.74l-5.48 0 1.37 -0.59 4.11 0 0 0.59z"/>
   <path id="7" class="fil2" d="M107.92 36.44l-1.37 0 0 -0.59 1.37 0 0 0.59zm0 -0.74l-1.37 0 0 -0.59 1.37 0 0 0.59zm0 -0.74l-1.37 0 0 -0.59 1.37 0 0 0.59zm0 2.38l-1.37 0.59 -2.74 0 -1.37 -0.59 5.48 0zm0 -0.15l-5.48 0 0 -0.59 5.48 0 0 0.59zm-4.11 -0.74l-1.37 0 0 -0.59 1.37 0 0 0.59zm0 -0.74l-1.37 0 0 -0.59 1.37 0 0 0.59zm0 -0.74l-1.37 0 0 -0.59 1.37 0 0 0.59zm4.11 -0.74l-5.48 0 0 -0.59 5.48 0 0 0.59zm0 -0.74l-5.48 0 1.37 -0.59 2.74 0 1.37 0.59z"/>
   <path id="8" class="fil2" d="M107.92 30.5l-1.37 0 0 -0.59 1.37 0 0 0.59zm0 -0.74l-1.37 0 0 -0.59 1.37 0 0 0.59zm0 1.64l-1.37 0.59 -5.48 0 0 -0.59 6.85 0zm0 -0.15l-6.85 0 0 -0.59 6.85 0 0 0.59z"/>
   <path id="9" class="fil2" d="M107.92 26.78l-1.37 0 0 -0.59 1.37 0 0 0.59zm0 -0.74l-1.37 0 0 -0.59 1.37 0 0 0.59zm0 -0.74l-1.37 0 0 -0.59 1.37 0 0 0.59zm0 2.38l-1.37 0.59 -2.74 0 -1.37 -0.59 5.48 0zm0 -0.15l-5.48 0 0 -0.59 5.48 0 0 0.59zm-4.11 -0.74l-1.37 0 0 -0.59 1.37 0 0 0.59zm0 -0.74l-1.37 0 0 -0.59 1.37 0 0 0.59zm0 -0.74l-1.37 0 0 -0.59 1.37 0 0 0.59zm4.11 -0.74l-5.48 0 0 -0.59 5.48 0 0 0.59zm0 -0.74l-5.48 0 1.37 -0.59 2.74 0 1.37 0.59z"/>
   <path id="10" class="fil2" d="M109.97 21.74l-1.37 0.59 0 -0.59 1.37 0zm0 -0.15l-1.37 0 0 -0.59 1.37 0 0 0.59zm0 -0.74l-1.37 0 0 -0.59 1.37 0 0 0.59zm0 -0.74l-1.37 0 0 -0.59 1.37 0 0 0.59zm0 -0.74l-1.37 0 0 -0.59 1.37 0 0 0.59zm-2.06 1.49l-1.37 0 0 -0.59 1.37 0 0 0.59zm0 -0.74l-1.37 0 0 -0.59 1.37 0 0 0.59zm0 -0.74l-1.37 0 0 -0.59 1.37 0 0 0.59zm0 2.38l-1.37 0.59 -2.74 0 -1.37 -0.59 5.48 0zm0 -0.15l-5.48 0 0 -0.59 5.48 0 0 0.59zm-4.11 -0.74l-1.37 0 0 -0.59 1.37 0 0 0.59zm0 -0.74l-1.37 0 0 -0.59 1.37 0 0 0.59zm0 -0.74l-1.37 0 0 -0.59 1.37 0 0 0.59zm6.17 -0.74l-7.54 0 0 -0.59 7.54 0 0 0.59zm0 -0.74l-7.54 0 1.37 -0.59 4.8 0 1.37 0.59z"/>
   <path id="11" class="fil2" d="M107.92 16.4l-5.48 0 0 -0.59 5.48 0 0 0.59zm0 -0.74l-5.48 0 0 -0.59 5.48 0 0 0.59zm-6.17 0.74l-0.69 0 0 -0.59 0.69 0 0 0.59zm0 -0.74l-0.69 0 0 -0.59 0.69 0 0 0.59z"/>
   <path id="12" class="fil2" d="M107.92 12.68l-1.37 0 0 -0.59 1.37 0 0 0.59zm0 -0.74l-1.37 0 0 -0.59 1.37 0 0 0.59zm0 -0.74l-1.37 0 0 -0.59 1.37 0 0 0.59zm0 2.38l-1.37 0.59 -2.06 0 0 -0.59 3.43 0zm0 -0.15l-3.43 0 0 -0.59 3.43 0 0 0.59zm-2.06 -0.74l-1.37 0 0 -0.59 1.37 0 0 0.59zm0 -0.74l-1.37 0 0 -0.59 1.37 0 0 0.59zm0 -0.74l-1.37 0 0 -0.59 1.37 0 0 0.59zm-2.06 2.97l-1.37 0 0 -0.59 1.37 0 0 0.59zm0 -0.74l-1.37 0 0 -0.59 1.37 0 0 0.59zm0 -0.74l-1.37 0 0 -0.59 1.37 0 0 0.59zm0 -0.74l-1.37 0 0 -0.59 1.37 0 0 0.59zm0 -0.74l-1.37 0 0 -0.59 1.37 0 0 0.59zm4.11 -0.74l-5.48 0 0 -0.59 5.48 0 0 0.59zm0 -0.74l-5.48 0 1.37 -0.59 4.11 0 0 0.59z"/>
   <path id="13" class="fil2" d="M107.92 3.76l-1.37 0 0 -0.59 1.37 0 0 0.59zm0 -0.74l-1.37 0 0 -0.59 1.37 0 0 0.59zm0 -0.74l-1.37 0 0 -0.59 1.37 0 0 0.59zm0 -0.74l-1.37 0 0 -0.59 1.37 0 0 0.59zm0 -0.74l-1.37 0 0 -0.59 1.37 0.59zm-2.06 2.97l-1.37 0 0 -0.59 1.37 0 0 0.59zm0 -0.74l-1.37 0 0 -0.59 1.37 0 0 0.59zm0 -0.74l-1.37 0 0 -0.59 1.37 0 0 0.59zm2.06 2.38l-1.37 0.59 -2.74 0 -1.37 -0.59 5.48 0zm0 -0.15l-5.48 0 0 -0.59 5.48 0 0 0.59zm-4.11 -0.74l-1.37 0 0 -0.59 1.37 0 0 0.59zm0 -0.74l-1.37 0 0 -0.59 1.37 0 0 0.59zm0 -0.74l-1.37 0 0 -0.59 1.37 0 0 0.59zm2.06 -0.74l-3.43 0 0 -0.59 3.43 0 0 0.59zm0 -0.74l-3.43 0 1.37 -0.59 2.06 0 0 0.59z"/>
   <g>
    <g>
     <path class="fil0" d="M107.93 65.37l-1.38 0 0 -0.59 1.38 0 0 0.59zm0 -0.74l-1.38 0 0 -0.59 1.38 0 0 0.59zm0 -0.74l-1.38 0 0 -0.59 1.38 0 0 0.59zm0 -0.74l-1.38 0 0 -0.59 1.38 0 0 0.59zm0 -0.74l-1.38 0 0 -0.59 1.38 0 0 0.59z"/>
     <polygon class="fil0" points="107.93,66.12 106.54,66.12 106.54,65.52 107.93,65.52 "/>
    </g>
    <polygon class="fil0" points="107.93,66.85 106.54,66.85 106.54,66.26 107.93,66.26 "/>
   </g>
  </g>
 </g>
</svg>
